<?xml version="1.0" encoding="iso-8859-1"?>
<!-- Generator: Adobe Illustrator 19.0.0, SVG Export Plug-In . SVG Version: 6.00 Build 0)  -->
<svg version="1.1" id="Layer_1" xmlns="http://www.w3.org/2000/svg" xmlns:xlink="http://www.w3.org/1999/xlink" x="0px" y="0px"
	 viewBox="0 0 512 512" style="enable-background:new 0 0 512 512;" xml:space="preserve">
<path style="fill:#2D527C;" d="M476.427,511.994h-153.62c-19.613,0-35.57-15.956-35.57-35.57V322.805
	c0-19.613,15.956-35.57,35.57-35.57h91.66c8.572,0,15.523,6.95,15.523,15.523s-6.951,15.523-15.523,15.523h-91.66
	c-2.493,0-4.523,2.029-4.523,4.523v153.619c0,2.495,2.03,4.523,4.523,4.523h153.62c2.493,0,4.523-2.029,4.523-4.523v-76.809
	c0-8.573,6.951-15.523,15.523-15.523s15.523,6.95,15.523,15.523v76.809C511.997,496.038,496.041,511.994,476.427,511.994z"/>
<path style="fill:#CEE8FA;" d="M15.526,189.188V35.57c0-11.071,8.975-20.047,20.047-20.047h153.62
	c11.071,0,20.047,8.975,20.047,20.047v153.619c0,11.071-8.975,20.047-20.047,20.047H35.573
	C24.502,209.235,15.526,200.259,15.526,189.188z"/>
<path style="fill:#2D527C;" d="M189.193,224.758H35.573c-19.613,0-35.57-15.956-35.57-35.57V35.57C0.003,15.956,15.959,0,35.573,0
	h153.62c19.613,0,35.57,15.956,35.57,35.57v153.619C224.763,208.802,208.807,224.758,189.193,224.758z M35.573,31.046
	c-2.493,0-4.523,2.029-4.523,4.523v153.619c0,2.495,2.03,4.523,4.523,4.523h153.62c2.493,0,4.523-2.029,4.523-4.523V35.57
	c0-2.495-2.03-4.523-4.523-4.523H35.573z"/>
<path style="fill:#CEE8FA;" d="M302.76,189.188V35.57c0-11.071,8.975-20.047,20.047-20.047h153.62
	c11.071,0,20.047,8.975,20.047,20.047v153.619c0,11.071-8.975,20.047-20.047,20.047h-153.62
	C311.736,209.235,302.76,200.259,302.76,189.188z"/>
<path style="fill:#2D527C;" d="M476.427,224.758h-153.62c-19.613,0-35.57-15.956-35.57-35.57V35.57
	c0-19.613,15.956-35.57,35.57-35.57h153.62c19.614,0,35.57,15.956,35.57,35.57v153.619
	C511.997,208.802,496.041,224.758,476.427,224.758z M322.807,31.046c-2.493,0-4.523,2.029-4.523,4.523v153.619
	c0,2.495,2.03,4.523,4.523,4.523h153.62c2.493,0,4.523-2.029,4.523-4.523V35.57c0-2.495-2.03-4.523-4.523-4.523H322.807z"/>
<path style="fill:#CEE8FA;" d="M15.526,476.43V322.812c0-11.071,8.975-20.047,20.047-20.047h153.62
	c11.071,0,20.047,8.975,20.047,20.047V476.43c0,11.071-8.975,20.047-20.047,20.047H35.573
	C24.502,496.477,15.526,487.501,15.526,476.43z"/>
<path style="fill:#2D527C;" d="M189.193,512H35.573c-19.613,0-35.57-15.956-35.57-35.57V322.812c0-19.613,15.956-35.57,35.57-35.57
	h153.62c19.613,0,35.57,15.956,35.57,35.57V476.43C224.763,496.044,208.807,512,189.193,512z M35.573,318.288
	c-2.493,0-4.523,2.029-4.523,4.523V476.43c0,2.495,2.03,4.523,4.523,4.523h153.62c2.493,0,4.523-2.029,4.523-4.523V322.812
	c0-2.495-2.03-4.523-4.523-4.523H35.573L35.573,318.288z"/>
<g>
</g>
<g>
</g>
<g>
</g>
<g>
</g>
<g>
</g>
<g>
</g>
<g>
</g>
<g>
</g>
<g>
</g>
<g>
</g>
<g>
</g>
<g>
</g>
<g>
</g>
<g>
</g>
<g>
</g>
</svg>
