<svg height="512" viewBox="0 0 128 128" width="512" xmlns="http://www.w3.org/2000/svg"><path d="m116.5 13.035h-101a8.009 8.009 0 0 0 -8 8v70.55a8.009 8.009 0 0 0 8 8h38.666l-1.208 8.078a5.407 5.407 0 0 1 -5.314 4.58h-.514a5.729 5.729 0 0 0 -5.722 5.722 1 1 0 0 0 1 1h47.184a1 1 0 0 0 1-1 5.729 5.729 0 0 0 -5.722-5.722h-.514a5.407 5.407 0 0 1 -5.314-4.58l-1.208-8.078h38.666a8.009 8.009 0 0 0 8-8v-70.55a8.009 8.009 0 0 0 -8-8z" fill="#e6e7e8"/><rect fill="#6dc9f7" height="84.549" rx="7" transform="matrix(-1 0 0 -1 124 104.62)" width="115" x="4.5" y="10.035"/><path d="m112.5 10.035h-101a7 7 0 0 0 -7 7v3a7 7 0 0 1 7-7h101a7 7 0 0 1 7 7v-3a7 7 0 0 0 -7-7z" fill="#fff"/><rect fill="#0089ef" height="64.78" rx="5" transform="matrix(-1 0 0 -1 124 99.418)" width="100.433" x="11.783" y="17.319"/><path d="m59.274 42a4.93 4.93 0 0 1 0 5.369 5.1 5.1 0 0 1 -2.216 1.79l-20.058 8.18a4.284 4.284 0 0 1 -1.59.341 2.968 2.968 0 0 1 -2.19-.88 3.041 3.041 0 0 1 -.88-2.244 2.594 2.594 0 0 1 .427-1.448 2.653 2.653 0 0 1 1.221-.995l18.581-7.443-18.581-7.445a2.514 2.514 0 0 1 -1.648-2.443 3 3 0 0 1 .853-2.216 2.924 2.924 0 0 1 2.158-.852 4.41 4.41 0 0 1 1.649.341l20.059 8.181a4.7 4.7 0 0 1 2.215 1.764z" fill="#fa759e"/><path d="m64.131 65.266a2.109 2.109 0 0 1 -.881-1.791 2.182 2.182 0 0 1 .881-1.818 3.751 3.751 0 0 1 2.358-.681h21.932a3.764 3.764 0 0 1 2.359.681 2.187 2.187 0 0 1 .88 1.818 2.113 2.113 0 0 1 -.88 1.791 3.881 3.881 0 0 1 -2.359.653h-21.932a3.868 3.868 0 0 1 -2.358-.653z" fill="#fa759e"/><path d="m80.87 109.243h-.513a6.374 6.374 0 0 1 -6.3-5.432l-1.379-9.226h-21.352l-1.379 9.226a6.374 6.374 0 0 1 -6.3 5.432h-.517a4.722 4.722 0 0 0 -4.722 4.722h47.184a4.722 4.722 0 0 0 -4.722-4.722z" fill="#0089ef"/><circle cx="62" cy="88.113" fill="#0089ef" r="3.121"/><g fill="#3a2c60"><path d="m107.217 16.318h-90.434a6.007 6.007 0 0 0 -6 6v54.782a6.007 6.007 0 0 0 6 6h90.434a6.007 6.007 0 0 0 6-6v-54.782a6.007 6.007 0 0 0 -6-6zm4 60.781a4 4 0 0 1 -4 4h-90.434a4 4 0 0 1 -4-4v-54.781a4.005 4.005 0 0 1 4-4h90.434a4.005 4.005 0 0 1 4 4z"/><path d="m60.105 41.443a5.684 5.684 0 0 0 -2.669-2.132l-20.065-8.184a4.382 4.382 0 0 0 -4.885.732 3.976 3.976 0 0 0 -1.146 2.923 3.51 3.51 0 0 0 2.276 3.371l16.264 6.516-16.28 6.523a3.645 3.645 0 0 0 -1.664 1.367 3.586 3.586 0 0 0 -.591 2 4.019 4.019 0 0 0 1.173 2.951 3.951 3.951 0 0 0 2.9 1.174 5.312 5.312 0 0 0 1.968-.415l20.084-8.193a6.1 6.1 0 0 0 2.63-2.146 5.927 5.927 0 0 0 .006-6.486zm-1.657 5.357a4.053 4.053 0 0 1 -1.768 1.428l-20.053 8.18a2.294 2.294 0 0 1 -2.7-.319 2.062 2.062 0 0 1 -.588-1.537 1.6 1.6 0 0 1 .266-.9 1.643 1.643 0 0 1 .754-.611l18.582-7.441a1 1 0 0 0 0-1.856l-18.541-7.431a1.527 1.527 0 0 1 -1.057-1.531 2.019 2.019 0 0 1 .56-1.509 1.922 1.922 0 0 1 1.451-.56 3.438 3.438 0 0 1 1.271.268l20.064 8.184a3.831 3.831 0 0 1 1.759 5.635z"/><path d="m91.391 60.866a4.739 4.739 0 0 0 -2.97-.89h-21.932a4.729 4.729 0 0 0 -2.97.89 3.189 3.189 0 0 0 -1.269 2.61 3.106 3.106 0 0 0 1.285 2.592 4.851 4.851 0 0 0 2.954.85h21.932a4.86 4.86 0 0 0 2.955-.851 3.114 3.114 0 0 0 1.284-2.592 3.193 3.193 0 0 0 -1.269-2.609zm-1.206 3.6a2.946 2.946 0 0 1 -1.764.457h-21.932a2.931 2.931 0 0 1 -1.762-.456 1.107 1.107 0 0 1 -.477-.986 1.189 1.189 0 0 1 .494-1.028 2.8 2.8 0 0 1 1.745-.472h21.932a2.821 2.821 0 0 1 1.745.471 1.194 1.194 0 0 1 .494 1.029 1.112 1.112 0 0 1 -.475.981z"/><path d="m119.5 65.305a1 1 0 0 0 -1 1v9.5a1 1 0 0 0 2 0v-9.5a1 1 0 0 0 -1-1z"/><path d="m112.5 9.035h-101a8.009 8.009 0 0 0 -8 8v70.55a8.009 8.009 0 0 0 8 8h38.666l-1.208 8.078a5.406 5.406 0 0 1 -5.314 4.58h-.514a5.729 5.729 0 0 0 -5.722 5.722 1 1 0 0 0 1 1h47.184a1 1 0 0 0 1-1 5.729 5.729 0 0 0 -5.722-5.722h-.514a5.406 5.406 0 0 1 -5.314-4.58l-1.208-8.078h38.666a8.009 8.009 0 0 0 8-8v-7.655a1 1 0 0 0 -2 0v7.655a6.007 6.007 0 0 1 -6 6h-101a6.007 6.007 0 0 1 -6-6v-70.55a6.007 6.007 0 0 1 6-6h101a6.007 6.007 0 0 1 6 6v44.52a1 1 0 1 0 2 0v-44.52a8.009 8.009 0 0 0 -8-8zm-40.688 86.55 1.251 8.374a7.42 7.42 0 0 0 7.293 6.284h.514a3.73 3.73 0 0 1 3.586 2.722h-44.912a3.73 3.73 0 0 1 3.586-2.722h.514a7.42 7.42 0 0 0 7.293-6.284l1.251-8.374z"/></g></svg>